<?xml version="1.0" standalone="no"?>
<!DOCTYPE svg PUBLIC "-//W3C//DTD SVG 20010904//EN"
 "http://www.w3.org/TR/2001/REC-SVG-20010904/DTD/svg10.dtd">
<svg version="1.0" xmlns="http://www.w3.org/2000/svg"
 width="512.000000pt" height="512.000000pt" viewBox="0 0 512.000000 512.000000"
 preserveAspectRatio="xMidYMid meet">
<metadata>
Created by potrace 1.14, written by Peter Selinger 2001-2017
</metadata>
<g transform="translate(0.000000,512.000000) scale(0.100000,-0.100000)"
fill="#000000" stroke="none">
<path d="M395 5106 c-193 -48 -343 -201 -384 -394 -16 -76 -16 -4228 0 -4304
42 -197 200 -355 397 -397 76 -16 4228 -16 4304 0 197 42 355 200 397 397 16
76 16 4228 0 4304 -42 197 -200 355 -397 397 -80 17 -4248 14 -4317 -3z m3073
-2550 c496 -850 902 -1547 902 -1550 0 -3 -813 -6 -1806 -6 -1565 0 -1805 2
-1802 14 4 19 1791 3086 1798 3086 3 0 411 -695 908 -1544z"/>
<path d="M1769 2493 c-431 -740 -785 -1350 -787 -1355 -2 -4 708 -8 1578 -8
1494 0 1582 1 1576 17 -13 34 -1569 2693 -1576 2693 -3 0 -359 -606 -791
-1347z m1160 -214 c200 -374 361 -682 359 -685 -3 -2 -332 -3 -731 -2 l-726 3
362 682 c199 376 364 683 367 683 3 0 169 -306 369 -681z"/>
<path d="M2303 2208 l-251 -493 506 -3 c278 -1 507 0 509 2 5 5 -498 986 -506
986 -4 0 -120 -222 -258 -492z"/>
</g>
</svg>
